<?xml version="1.0" encoding="UTF-8" standalone="no"?>
<svg
   xmlns:dc="http://purl.org/dc/elements/1.1/"
   xmlns:cc="http://creativecommons.org/ns#"
   xmlns:rdf="http://www.w3.org/1999/02/22-rdf-syntax-ns#"
   xmlns:svg="http://www.w3.org/2000/svg"
   xmlns="http://www.w3.org/2000/svg"
   xmlns:sodipodi="http://sodipodi.sourceforge.net/DTD/sodipodi-0.dtd"
   xmlns:inkscape="http://www.inkscape.org/namespaces/inkscape"
   version="1.1"
   id="Livello_1"
   x="0px"
   y="0px"
   viewBox="0 0 250 250"
   enable-background="new 0 0 250 250"
   xml:space="preserve"
   sodipodi:docname="Volvo-Iron-Mark-White.svg"
   inkscape:version="1.0.2 (e86c870879, 2021-01-15)"><metadata
   id="metadata108"><rdf:RDF><cc:Work
       rdf:about=""><dc:format>image/svg+xml</dc:format><dc:type
         rdf:resource="http://purl.org/dc/dcmitype/StillImage" /><dc:title></dc:title></cc:Work></rdf:RDF></metadata><defs
   id="defs106" /><sodipodi:namedview
   pagecolor="#ffffff"
   bordercolor="#666666"
   borderopacity="1"
   objecttolerance="10"
   gridtolerance="10"
   guidetolerance="10"
   inkscape:pageopacity="0"
   inkscape:pageshadow="2"
   inkscape:window-width="1680"
   inkscape:window-height="975"
   id="namedview104"
   showgrid="false"
   inkscape:zoom="2.472"
   inkscape:cx="45.914239"
   inkscape:cy="124.59547"
   inkscape:window-x="0"
   inkscape:window-y="0"
   inkscape:window-maximized="1"
   inkscape:current-layer="Livello_1" />
<g
   id="Volvo_Iron_Mark">
	<g
   id="g96">
		<path
   d="M112.8,134.5h30.3v-10.1h-3.3c0,3.9-2.8,6.7-7.2,6.7H128v-15.1h5v-3.4h-20.2v3.4h5.1l0,15.1h-5.1L112.8,134.5L112.8,134.5    z"
   id="path86" />
		<polygon
   points="157.7,134.5 169.5,134.5 179.6,116 184.6,116 184.6,112.6 169.5,112.6 169.5,116 173.9,116 166.5,129.5     159.2,116 164.5,116 164.5,112.6 142.5,112.6 142.5,116 147.5,116   "
   id="polygon88" />
		<polygon
   points="52.4,112.6 30.5,112.6 30.5,116 35.5,116 45.7,134.5 57.5,134.5 67.5,116 72.5,116 72.5,112.6 57.4,112.6     57.4,116 61.8,116 54.5,129.5 47.1,116 52.4,116   "
   id="polygon90" />
		<path
   d="M75.5,123.6c0,6.4,5.2,11.6,15.6,11.6c10.4,0,15.5-5.1,15.5-11.6c0-6.4-5.4-11.4-15.6-11.4    C80.9,112.1,75.5,117.2,75.5,123.6z M96.4,123.6c-0.1,4-1.7,8.1-5.5,8c-3.7-0.1-5.3-4.2-5.3-8.2c0.1-4.2,2.1-7.9,5.6-7.8    C94.7,115.6,96.5,119.4,96.4,123.6z"
   id="path92" />
		<path
   d="M187.5,123.6c0,6.4,5.2,11.6,15.6,11.6c10.4,0,15.5-5.1,15.5-11.6c0-6.4-5.4-11.4-15.6-11.4    C192.9,112.1,187.5,117.2,187.5,123.6z M203.2,115.6c3.5,0.1,5.3,3.8,5.2,8c-0.1,4-1.7,8.1-5.5,8c-3.7-0.1-5.3-4.2-5.3-8.2    C197.7,119.2,199.7,115.5,203.2,115.6z"
   id="path94" />
	</g>
	<path
   d="M227.9,54l-12.7,12.7c10.9,16.8,17.2,36.8,17.2,58.3c0,59.3-48.1,107.4-107.4,107.4S17.6,184.3,17.6,125   S65.7,17.6,125,17.6c21.6,0,41.6,6.4,58.4,17.3l12.7-12.7C176,8.2,151.4,0,125,0C56,0,0,56,0,125s56,125,125,125s125-56,125-125   C250,98.6,241.8,74.1,227.9,54z"
   id="path98" />
	<path
   d="M187.9,4.9v3.5c7.6,4.1,14.7,9,21.3,14.4l-17.8,17.8c6.7,5.3,12.8,11.3,18.1,18l17.8-17.8c5.5,6.6,10.3,13.8,14.4,21.2h3.4   V4.9H187.9z"
   id="path100" />
</g>
<path
   style="fill:#ffffff;fill-opacity:1;stroke-width:0.404531"
   d="M 118.32524,249.56214 C 78.988487,247.49443 42.931274,226.81945 21.024012,193.77023 10.221329,177.47333 3.9401982,160.59645 1.150665,140.37217 0.27234138,134.00427 0.15263188,117.49361 0.93948726,111.24595 3.5701371,90.358507 9.9290142,72.977456 21.120186,56.085 42.948596,23.13622 79.392431,2.3096453 118.43745,0.47106262 c 21.90674,-1.03156224 42.99768,3.30343418 61.90591,12.72403938 3.53615,1.761811 12.93076,7.204415 14.62749,8.474181 0.75809,0.567326 0.5073,0.885028 -5.25385,6.655797 -3.32746,3.333018 -6.18228,6.060033 -6.34403,6.060033 -0.16176,0 -1.65235,-0.824606 -3.31242,-1.832458 -4.67098,-2.83582 -14.09657,-7.237487 -19.46184,-9.088507 -6.05907,-2.090379 -14.68959,-4.18989 -21.0356,-5.117243 -6.78902,-0.992091 -22.3573,-0.990401 -29.12622,0.0032 C 87.092464,21.776629 66.974519,31.549864 50.46532,47.484061 33.33241,64.020247 22.895975,83.871064 18.730045,107.84673 c -0.796046,4.58139 -0.908392,6.65403 -0.918816,16.951 -0.0096,9.51683 0.127819,12.57139 0.728146,16.18123 3.894475,23.41793 13.416593,42.54168 29.381814,59.009 17.074361,17.61134 38.675049,28.37599 63.931561,31.86014 2.25023,0.31042 7.69933,0.53015 13.14725,0.53015 13.15711,0 21.90309,-1.35876 33.57605,-5.2163 17.05117,-5.63487 31.17201,-14.45545 43.50276,-27.17399 15.99231,-16.49527 25.48073,-35.55133 29.38182,-59.009 0.60032,-3.60984 0.73778,-6.6644 0.72814,-16.18123 -0.0104,-10.29697 -0.12277,-12.36961 -0.91881,-16.951 -2.56781,-14.778186 -6.82102,-26.147725 -14.88089,-39.779064 l -0.77418,-1.309349 6.11988,-6.123604 6.11989,-6.123605 1.61106,2.376319 c 14.58966,21.519786 22.19256,51.316363 19.90851,78.023573 -2.15749,25.22744 -11.28129,48.16536 -27.1127,68.16343 -4.53962,5.73439 -14.47909,15.54677 -20.40631,20.14536 -17.22791,13.36617 -37.54338,22.11129 -58.44907,25.16035 -4.8971,0.71423 -7.26097,0.9084 -16.58576,1.36232 -1.4462,0.0704 -5.26901,-0.0108 -8.49515,-0.18033 z"
   id="path110" /><path
   style="fill:#ffffff;fill-opacity:1;stroke-width:0.404531"
   d="m 45.434535,133.40479 c -0.322785,-0.50653 -2.66364,-4.69828 -5.2019,-9.31498 l -4.615018,-8.39402 h -2.537773 -2.537773 v -1.41585 -1.41586 h 10.92233 10.92233 v 1.39813 1.39814 l -2.821232,0.11885 -2.821232,0.11886 3.668183,6.67476 c 2.017501,3.67111 3.792951,6.80747 3.945444,6.96968 0.205991,0.21911 6.766047,-11.34598 7.670153,-13.52214 0.07417,-0.17851 -0.881539,-0.32457 -2.123786,-0.32457 h -2.25863 v -1.41585 -1.41586 h 7.281553 7.281554 v 1.39655 1.39656 l -2.467173,0.12043 -2.467173,0.12044 -4.915629,9.10194 -4.915628,9.10194 -5.71086,0.11191 c -5.559074,0.10894 -5.726457,0.0874 -6.29774,-0.80906 z"
   id="path112" /><path
   style="fill:#ffffff;fill-opacity:1;stroke-width:0.404531"
   d="m 86.789105,134.6527 c -6.698662,-1.11049 -10.951163,-5.40818 -10.930706,-11.04685 0.02335,-6.43657 5.201675,-10.59662 13.746963,-11.04373 7.942412,-0.41557 13.683158,2.15377 15.872928,7.10412 0.93221,2.10741 1.01062,5.85633 0.16482,7.88059 -2.31394,5.53804 -10.255853,8.53127 -18.854005,7.10587 z m 6.242127,-3.35187 c 3.959484,-1.65438 4.760986,-11.94185 1.151596,-14.78099 -2.74318,-2.15779 -5.954922,-1.21578 -7.647097,2.2429 -0.930508,1.90189 -1.045444,2.56886 -0.916498,5.31839 0.179393,3.82521 1.190133,6.06167 3.203026,7.08734 1.684243,0.8582 2.416669,0.88123 4.208973,0.13236 z"
   id="path114" /><path
   style="fill:#ffffff;fill-opacity:1;stroke-width:0.404531"
   d="m 113.06634,132.88835 v -1.41586 h 2.42719 2.42718 v -7.88835 -7.88835 h -2.42718 -2.42719 v -1.41585 -1.41586 h 9.91101 9.911 v 1.41586 1.41585 h -2.63819 -2.63818 l 0.10987,7.78722 0.10987,7.78722 3.46842,-0.0338 c 5.12545,-0.0499 7.71675,-1.61122 8.41903,-5.07252 0.24839,-1.22429 0.43325,-1.37923 1.77982,-1.49174 l 1.50263,-0.12555 v 4.87879 4.87879 h -14.96764 -14.96764 z"
   id="path116" /><path
   style="fill:#ffffff;fill-opacity:1;stroke-width:0.404531"
   d="m 152.71036,124.99623 -5.05664,-9.29649 -2.52832,-0.002 -2.52831,-0.002 v -1.41585 -1.41586 h 10.92233 10.92233 v 1.41586 1.41585 h -2.62945 c -1.46933,0 -2.62945,0.17707 -2.62945,0.40134 0,0.44428 6.13882,11.94272 6.96415,13.04435 0.45566,0.6082 0.96807,-0.13289 4.16044,-6.01716 2.00243,-3.69093 3.70146,-6.87227 3.77562,-7.06965 0.0742,-0.19738 -0.88154,-0.35888 -2.12378,-0.35888 h -2.25863 v -1.41585 -1.41586 h 7.28155 7.28155 v 1.41586 1.41585 h -2.39055 -2.39056 l -5.02157,9.20308 -5.02157,9.20307 -5.83626,0.0954 -5.83625,0.0954 z"
   id="path118" /><path
   style="fill:#ffffff;fill-opacity:1;stroke-width:0.404531"
   d="m 198.84412,134.6527 c -6.74799,-1.11867 -10.92638,-5.35615 -10.93564,-11.09026 -0.009,-5.49612 3.80823,-9.41139 10.4492,-10.71792 3.5225,-0.69301 9.32647,-0.29526 12.36999,0.84773 2.82009,1.05907 5.71775,3.56528 6.75978,5.84658 1.61309,3.5315 0.53045,8.93169 -2.32706,11.60739 -3.29944,3.08951 -10.06324,4.5431 -16.31627,3.50648 z m 6.22671,-3.39713 c 3.81984,-1.81263 4.7334,-10.82286 1.45336,-14.33415 -2.40714,-2.57685 -6.26615,-1.78451 -8.01033,1.64471 -0.75007,1.4747 -0.94554,2.5079 -0.94554,4.99792 0,3.93016 1.11941,6.52448 3.28119,7.60442 1.74004,0.86924 2.53837,0.88571 4.22132,0.0871 z"
   id="path120" /><path
   style="fill:#ffffff;fill-opacity:1;stroke-width:0.404531"
   d="m 240.10477,58.76854 c -2.72587,-4.704826 -6.25788,-9.978443 -9.64584,-14.402128 l -3.04433,-3.975012 -8.95216,8.945526 -8.95216,8.945521 -2.07259,-2.543325 C 205.21142,53.007209 197.08274,44.929148 193.77023,42.156768 l -2.02266,-1.692844 8.87725,-8.886105 8.87725,-8.886106 -1.15388,-0.92919 C 204.56556,18.71647 197.05397,13.490461 192.81696,10.957048 188.07028,8.1188867 187.90453,7.9732007 187.90453,6.6393392 V 5.2588997 h 28.51942 28.51942 V 33.576052 61.893204 l -1.51699,-0.005 c -1.46388,-0.0048 -1.58017,-0.114013 -3.32161,-3.119705 z"
   id="path122" /></svg>
